<svg xmlns="http://www.w3.org/2000/svg" xmlns:xlink="http://www.w3.org/1999/xlink" xmlns:inkscape="http://www.inkscape.org/namespaces/inkscape" version="1.1" width="1000" height="331.268" viewBox="0 0 1000 331.268">
<defs>
<clipPath id="clip_0">
<path transform="matrix(1,0,0,-1,0,331.268)" d="M0 331.268H1000V0H0Z"/>
</clipPath>
</defs>
<g inkscape:groupmode="layer" inkscape:label="Warstwa 1">
<path transform="matrix(1,0,0,-1,337.0413,119.014408)" d="M0 0H18.248L-23.31-93.24H-43.156L-84.848 0H-66.467L-33.3-74.325Z" fill="#67bc66"/>
<g clip-path="url(#clip_0)">
<path transform="matrix(1,0,0,-1,459.7144,119.014408)" d="M0 0H16.783V-75.391C16.783-85.248 8.791-93.24-1.066-93.24H-56.61C-66.467-93.24-74.459-85.248-74.459-75.391V0H-57.542V-73.393C-57.542-75.658-55.811-77.389-53.68-77.389H-3.996C-1.865-77.389 0-75.658 0-73.393Z" fill="#67bc66"/>
<path transform="matrix(1,0,0,-1,531.7722,196.4033)" d="M0 0H52.481V-15.851H-16.916V77.389H0Z" fill="#67bc66"/>
<path transform="matrix(1,0,0,-1,689.0789,138.8612)" d="M0 0C0 2.264-1.864 3.996-3.995 3.996H-53.679C-55.81 3.996-57.542 2.264-57.542 0V-53.546C-57.542-55.811-55.81-57.542-53.679-57.542H-3.995C-1.864-57.542 0-55.811 0-53.546ZM16.783 1.998V-55.544C16.783-65.401 8.792-73.393-1.065-73.393H-56.61C-66.466-73.393-74.458-65.401-74.458-55.544V1.998C-74.458 11.855-66.466 19.847-56.61 19.847H-1.065C8.792 19.847 16.783 11.855 16.783 1.998" fill="#67bc66"/>
<path transform="matrix(1,0,0,-1,814.2837,163.10321)" d="M0 0C2.131 0 3.996 1.731 3.996 3.863V24.242C3.996 26.506 2.131 28.238 0 28.238H-53.546V0ZM-3.064-15.984 24.775-49.151H4.928L-22.91-15.984H-53.546V-49.151H-70.463V44.089H2.93C12.787 44.089 20.779 36.097 20.779 26.24V1.998C20.779-7.992 12.787-15.984 2.93-15.984Z" fill="#67bc66"/>
<path transform="matrix(1,0,0,-1,881.5472,212.2541)" d="M0 0H-18.248L23.31 93.24H43.156L84.848 0H66.466L33.299 74.325Z" fill="#67bc66"/>
<path transform="matrix(1,0,0,-1,60.5714,228.2807)" d="M0 0C.226 .225 .458 .443 .691 .661 .887 .853 1.093 1.042 1.295 1.227 1.301 1.234 1.308 1.24 1.315 1.246 .872 .835 .437 .416 0 0M56.228 26.999C44.806 25.299 33.967 21.909 23.702 16.736 17.244 13.484 11.205 9.621 5.683 5.071 5.051 4.551 4.421 4.028 3.804 3.49 3.012 2.799 2.233 2.095 1.462 1.382 1.666 1.571 1.87 1.76 2.075 1.946 2.245 2.101 2.415 2.255 2.584 2.407 2.786 2.59 2.988 2.77 3.192 2.952 3.396 3.133 3.6 3.313 3.805 3.491 4.112 3.76 4.423 4.025 4.738 4.287 5.05 4.551 5.365 4.811 5.682 5.072 3.495 6.484 1.361 7.959-.551 9.675-7.679 16.069-11.044 24.323-10.645 33.955-10.408 39.649-10.148 45.34-9.886 51.032-1.923 55.616 6.055 60.176 13.994 64.802 21.178 68.989 28.598 72.852 35.41 77.582 36.492 78.333 37.532 79.116 38.528 79.928 43.302 83.82 47.063 88.385 49.786 93.567H59.713C62.438 88.385 66.196 83.82 70.972 79.928 71.967 79.116 73.007 78.333 74.089 77.582 80.903 72.852 88.321 68.989 95.506 64.802 103.444 60.176 111.422 55.616 119.385 51.032 119.648 45.34 119.909 39.649 120.143 33.955 120.39 28.044 119.215 22.652 116.626 17.889L116.625 17.888C111.4 20.437 105.95 22.551 100.239 24.152 85.825 28.196 71.156 29.221 56.228 26.999M130.082 10.027C135.213 17.622 136.636 24.71 136.447 32.62 136.447 33.181 136.466 62.904 136.461 73.633 136.658 116.338 129.341 129.525 114.705 138.44 114.232 138.745 113.758 139.048 113.266 139.331 99.08 147.566 84.877 155.765 70.671 163.962V145.136C71.551 144.653 72.327 144.24 73.09 143.798 83.655 137.687 94.237 131.607 104.772 125.443 113.09 120.574 118.218 113.281 119.748 103.828 120.493 99.227 120.184 94.446 120.232 89.743 120.299 83.392 120.248 77.037 120.243 70.684 120.243 70.34 120.198 69.992 120.157 69.388 117.592 70.871 115.177 72.266 112.763 73.662 103.661 78.919 94.469 84.022 85.485 89.473 79.598 93.045 75.38 97.746 72.981 103.477 72.364 104.948 71.868 106.487 71.494 108.092 70.635 111.78 67.394 114.418 63.608 114.418H45.891C42.149 114.418 38.867 111.856 38.032 108.209 37.408 105.482 36.431 102.944 35.115 100.605 32.613 96.158 28.884 92.428 24.014 89.473 15.03 84.022 5.838 78.919-3.262 73.662-5.678 72.266-8.091 70.871-10.658 69.388-10.699 69.992-10.744 70.34-10.744 70.684-10.747 77.037-10.799 83.392-10.735 89.743-10.686 94.446-10.994 99.227-10.249 103.828-8.72 113.281-3.591 120.574 4.726 125.443 15.261 131.607 25.844 137.687 36.408 143.798 37.174 144.242 37.953 144.653 38.833 145.139V163.966C24.625 155.767 10.42 147.566-3.767 139.331-4.257 139.048-4.733 138.745-5.206 138.44-19.842 129.525-27.158 116.338-26.962 73.633-26.968 62.904-26.949 33.181-26.949 32.62-27.257 19.653-23.236 8.892-5.641-5.506-4.868-4.744-4.094-3.977-3.32-3.215H-3.319C-3.319-3.215-3.32-3.215-3.319-3.215-4.093-3.978-4.866-4.744-5.639-5.507-5.083-5.963-4.502-6.426-3.919-6.889 .806-3.568 5.794-.731 11.023 1.665 14.754 3.374 18.605 4.866 22.567 6.155 31.036 8.908 39.73 10.407 48.625 10.8 56.798 11.159 64.885 10.567 72.873 8.91 81.312 7.16 89.488 4.626 96.979 .514 97.046 .478 97.114 .446 97.18 .409 102.117-2.327 106.789-5.506 111.507-8.603 120.444-1.776 126.395 4.205 130.272 9.899 130.209 9.942 130.144 9.982 130.081 10.025 130.081 10.026 130.082 10.027 130.082 10.027" fill="#67bc66" fill-rule="evenodd"/>
<path transform="matrix(1,0,0,-1,152.2721,231.1779)" d="M0 0C-5.356 3.018-11.149 5.308-17.27 7.015-25.735 9.375-34.447 10.374-43.424 10.043-51.904 9.733-60.249 8.219-68.455 5.493-71.37 4.527-74.209 3.414-76.995 2.182-82.365-.19-87.516-3.056-92.496-6.407-91.659-7.037-90.794-7.677-89.906-8.324-83.209-6.237-76.394-5.318-69.468-5.636-68.577-5.677-67.692-5.741-66.814-5.822-61.148-6.342-55.735-7.688-50.566-9.846-43.976-12.597-38.321-16.535-33.434-21.47-30.779-24.151-28.686-27.199-26.869-30.417-25.883-32.163-24.979-33.959-24.111-35.776-10.716-26.711 5.589-15.665 6.377-15.149 8.967-13.448 11.377-11.807 13.647-10.208 11.26-8.048 8.855-5.911 6.257-4.007 4.252-2.538 2.159-1.216 0 0" fill="#67bc66" fill-rule="evenodd"/>
</g>
</g>
</svg>
